<svg xmlns="http://www.w3.org/2000/svg" viewBox="0 0 512 512">
  <rect width="512" height="512" fill="#161412"/>
  <g transform="translate(72.0, 112.0) scale(12)" fill="#e8253a">
    <path d="M0 7.664v2.223h2.43v6.449H5.1v-6.45h2.43V7.665zm7.945 0v8.672h7.31v-2.223h-4.638v-1.08h4.637v-2.066h-4.637v-1.08h4.637V7.664zm7.759 0v8.672h3.863c3.024 0 4.433-1.688 4.433-4.349 0-2.185-1.021-4.323-3.912-4.323zm2.672 2.223h.85c1.931 0 2.102 1.518 2.102 2.063 0 .815-.243 2.163-1.907 2.163h-1.045z"/>
  </g>
  <text x="366.0" y="308.0"
    font-family="Helvetica Neue, Helvetica, Arial, sans-serif"
    font-size="109" font-weight="300"
    fill="#ffffff">x</text>
</svg>